<svg width="214" height="56" viewBox="0 0 214 56" fill="none" xmlns="http://www.w3.org/2000/svg">
  <defs>
    <linearGradient id="logo-gradient" x1="8" y1="6" x2="202" y2="52" gradientUnits="userSpaceOnUse">
      <stop stop-color="#67E8F9"/>
      <stop offset="0.48" stop-color="#60A5FA"/>
      <stop offset="1" stop-color="#C4B5FD"/>
    </linearGradient>
    <linearGradient id="mark-gradient" x1="8" y1="8" x2="48" y2="48" gradientUnits="userSpaceOnUse">
      <stop stop-color="#22D3EE"/>
      <stop offset="0.5" stop-color="#3B82F6"/>
      <stop offset="1" stop-color="#8B5CF6"/>
    </linearGradient>
    <filter id="logo-glow" x="-30%" y="-30%" width="160%" height="160%">
      <feGaussianBlur stdDeviation="3" result="blur"/>
      <feComposite in="SourceGraphic" in2="blur" operator="over"/>
    </filter>
  </defs>

  <rect x="2.5" y="2.5" width="51" height="51" rx="15.5" fill="#0F1C35" stroke="url(#mark-gradient)"/>
  <path d="M37.6 17.1C35.3 14.8 32.1 13.5 28.4 13.5C22.4 13.5 18.1 16.6 18.1 21.1C18.1 25.9 21.9 27.9 28.1 29.3C32.8 30.4 34.4 31.3 34.4 33.3C34.4 35.3 32.3 36.6 28.9 36.6C25.3 36.6 22.1 35.2 19.6 32.7L16.3 37C19.5 40.1 23.8 41.8 28.7 41.8C35.4 41.8 40.1 38.5 40.1 33.2C40.1 28.5 36.7 26.4 30.2 24.8C25.3 23.6 23.6 22.9 23.6 20.9C23.6 19.2 25.4 18.2 28.3 18.2C31.2 18.2 33.7 19.3 35.8 21.2L37.6 17.1Z" fill="url(#mark-gradient)" filter="url(#logo-glow)"/>
  <text x="65" y="36" fill="url(#logo-gradient)" font-family="Inter, Arial, sans-serif" font-size="25" font-weight="800" letter-spacing="0.2">Shubham</text>
</svg>
